<svg width="30" height="18" viewBox="0 0 30 18" fill="none" xmlns="http://www.w3.org/2000/svg">
<path d="M29.953 1.32754C30.2081 2.01684 29.4246 3.62521 27.6027 6.15265C27.3476 6.4973 27.0197 6.95683 26.6188 7.53125C25.7807 8.60349 25.307 9.31194 25.1977 9.65659C25.0155 10.1161 25.0884 10.5565 25.4163 10.9777C25.5985 11.2075 26.0176 11.6671 26.6735 12.3564H26.7281V12.4138C28.2222 13.8307 29.2242 15.037 29.7344 16.0326L29.8437 16.2624L29.953 16.6932V17.2389L29.5704 17.6697L28.6412 17.8708L24.6511 17.9856C24.396 18.0239 24.0954 17.9856 23.7492 17.8708C23.4031 17.7559 23.1389 17.641 22.9567 17.5261L22.6287 17.2963C22.3008 17.0666 21.9364 16.7219 21.5356 16.2624C21.1347 15.8029 20.7794 15.3816 20.4697 14.9987C20.16 14.6157 19.8411 14.2998 19.5132 14.0509C19.1852 13.802 18.8937 13.7158 18.6386 13.7924C18.6022 13.7924 18.5567 13.8115 18.502 13.8498C18.4473 13.8881 18.3562 13.9743 18.2287 14.1083C18.1012 14.2424 17.9918 14.4051 17.9008 14.5966C17.8097 14.7881 17.7277 15.0657 17.6548 15.4295C17.5819 15.7933 17.5455 16.2241 17.5455 16.7219C17.5455 16.8751 17.5273 17.0187 17.4908 17.1527C17.4544 17.2868 17.4179 17.3921 17.3815 17.4687L17.3268 17.5261C17.1082 17.7559 16.8167 17.8708 16.4523 17.8708H14.7032C13.938 17.9473 13.1637 17.8708 12.3802 17.641C11.5968 17.4112 10.9135 17.1144 10.3305 16.7506C9.74748 16.3868 9.21912 16.023 8.74541 15.6593C8.2717 15.2955 7.9073 14.9795 7.65223 14.7115L7.26962 14.3094C7.1603 14.2328 7.01454 14.0796 6.83235 13.8498C6.65015 13.6201 6.27665 13.1222 5.71184 12.3564C5.14704 11.5905 4.59134 10.7671 4.04475 9.88636C3.49816 9.00558 2.86048 7.84718 2.13169 6.41113C1.40291 4.97509 0.728784 3.49118 0.109318 1.9594C0.0364392 1.76793 0 1.61475 0 1.49987C0 1.38498 0.0182196 1.28925 0.0546588 1.21266L0.109318 1.15522C0.255074 0.92545 0.546588 0.810566 0.983858 0.810566H5.3019C5.41122 0.810566 5.52054 0.839287 5.62985 0.896729L5.90315 1.04033L5.95781 1.09777C6.14 1.21266 6.26754 1.38498 6.34042 1.61475C6.55905 2.15087 6.80502 2.71572 7.07831 3.30928C7.35161 3.90285 7.56113 4.35281 7.70689 4.65916L7.92552 5.1187C8.25348 5.7697 8.5541 6.33455 8.82739 6.81323C9.10069 7.29191 9.34665 7.66528 9.56529 7.93334C9.78392 8.2014 10.0026 8.41202 10.2212 8.5652C10.4398 8.71838 10.622 8.79496 10.7678 8.79496C10.9135 8.79496 11.0593 8.77582 11.2051 8.73752L11.2597 8.65136L11.451 8.27799L11.6697 7.53125L11.8063 6.21009V4.14219C11.7699 3.72095 11.7152 3.32843 11.6423 2.96463C11.5694 2.60083 11.4966 2.34235 11.4237 2.18917L11.369 2.01684C11.114 1.6339 10.6585 1.38498 10.0026 1.2701C9.89324 1.2701 9.92968 1.13607 10.1119 0.868008C10.2941 0.676536 10.4945 0.523358 10.7131 0.408474C11.2597 0.102119 12.4986 -0.0319121 14.4299 0.00638241C15.268 0.00638241 15.9786 0.0829714 16.5616 0.236149C16.7438 0.274444 16.9078 0.341459 17.0535 0.437195C17.1993 0.532931 17.3086 0.666962 17.3815 0.839287C17.4544 1.01161 17.509 1.18394 17.5455 1.35626C17.5819 1.52859 17.6001 1.7775 17.6001 2.103V2.99335C17.5637 3.29971 17.5455 3.68265 17.5455 4.14219V5.52079C17.5455 5.63567 17.5364 5.86544 17.5181 6.21009C17.4999 6.55474 17.4908 6.8228 17.4908 7.01427C17.4908 7.20574 17.509 7.42594 17.5455 7.67485C17.5819 7.92377 17.6457 8.13439 17.7368 8.30671C17.8279 8.47904 17.9463 8.60349 18.0921 8.68008C18.1649 8.71838 18.2469 8.7471 18.338 8.76624C18.4291 8.78539 18.5658 8.72795 18.748 8.59392C18.9302 8.45989 19.1306 8.26842 19.3492 8.0195C19.5678 7.77059 19.8411 7.39722 20.1691 6.89939C20.497 6.40156 20.8432 5.82714 21.2076 5.17614C21.8271 4.0273 22.3919 2.78273 22.902 1.44243C22.9385 1.36584 22.984 1.27967 23.0387 1.18394C23.0933 1.0882 23.1571 1.02119 23.23 0.982892H23.2846L23.3393 0.92545L23.5579 0.868008H23.8859L28.3679 0.810566C28.7687 0.772272 29.1058 0.791419 29.3791 0.868008C29.6524 0.944597 29.8073 1.04033 29.8437 1.15522L29.953 1.32754Z" fill="#8D86C9"/>
</svg>
